<?xml version="1.0" standalone="no"?>
<!DOCTYPE svg PUBLIC "-//W3C//DTD SVG 20010904//EN"
 "http://www.w3.org/TR/2001/REC-SVG-20010904/DTD/svg10.dtd">
<svg version="1.0" xmlns="http://www.w3.org/2000/svg"
 width="2400.000000pt" height="2400.000000pt" viewBox="0 0 2400.000000 2400.000000"
 preserveAspectRatio="xMidYMid meet">
<metadata>
Created by potrace 1.14, written by Peter Selinger 2001-2017
</metadata>
<g transform="translate(0.000000,2400.000000) scale(0.100000,-0.100000)"
fill="#000000" stroke="none">
<path d="M11625 23950 c-1697 -49 -3345 -452 -4863 -1190 -2321 -1129 -4211
-2966 -5409 -5255 -1608 -3073 -1793 -6734 -503 -9960 528 -1321 1268 -2507
2244 -3595 167 -187 669 -689 856 -856 551 -494 1085 -898 1685 -1274 1960
-1228 4207 -1854 6520 -1817 658 11 1223 62 1835 166 3800 645 7074 3106 8770
6593 611 1257 992 2601 1135 4003 78 766 78 1664 -1 2430 -260 2550 -1312
4905 -3053 6835 -135 149 -662 676 -811 811 -1082 976 -2278 1726 -3603 2258
-1519 610 -3146 899 -4802 851z m905 -600 c2642 -138 5048 -1127 7035 -2890
193 -172 723 -702 895 -895 1592 -1794 2563 -3955 2830 -6295 56 -497 74 -886
67 -1450 -6 -436 -11 -551 -43 -895 -169 -1865 -809 -3671 -1855 -5240 -440
-660 -875 -1191 -1434 -1750 -1690 -1692 -3831 -2796 -6180 -3189 -624 -104
-1188 -150 -1860 -150 -439 0 -661 9 -1050 45 -1821 166 -3564 767 -5110 1762
-1000 643 -1911 1458 -2671 2389 -1434 1756 -2308 3893 -2513 6143 -36 389
-45 611 -45 1050 0 543 22 900 85 1405 388 3117 2048 5925 4614 7800 737 538
1612 1021 2480 1368 1143 457 2386 728 3620 791 237 12 911 12 1135 1z"/>
<path d="M4960 19055 l-95 -95 1635 -1635 c899 -899 1640 -1635 1645 -1635 13
0 185 172 185 185 0 10 -3260 3275 -3270 3275 -3 0 -48 -43 -100 -95z"/>
<path d="M17532 17517 c-897 -897 -1632 -1637 -1632 -1642 0 -13 172 -185 185
-185 6 0 746 736 1645 1635 l1635 1635 -95 95 c-52 52 -97 95 -100 95 -3 0
-740 -735 -1638 -1633z"/>
<path d="M11755 18906 c-219 -37 -407 -111 -595 -235 -119 -77 -318 -279 -399
-401 -352 -534 -344 -1212 20 -1730 66 -94 220 -253 313 -325 340 -260 777
-357 1196 -266 605 133 1072 651 1151 1278 16 129 6 380 -20 501 -43 202 -113
368 -225 537 -213 318 -525 535 -895 622 -132 31 -416 41 -546 19z m408 -271
c504 -88 896 -477 998 -990 18 -92 18 -358 0 -450 -94 -478 -433 -849 -886
-971 -80 -21 -130 -28 -250 -31 -227 -8 -382 24 -570 117 -551 273 -817 938
-609 1522 149 418 515 732 935 802 113 19 278 19 382 1z"/>
<path d="M6420 13710 c-177 -25 -331 -74 -488 -155 -396 -206 -676 -577 -774
-1028 -19 -87 -22 -132 -22 -312 0 -180 3 -225 22 -312 174 -800 915 -1306
1707 -1168 314 55 633 240 844 489 353 418 458 963 285 1484 -165 498 -587
873 -1103 982 -110 24 -367 34 -471 20z m430 -289 c219 -49 405 -149 569 -305
252 -241 383 -550 383 -901 0 -330 -115 -621 -341 -858 -389 -409 -1005 -492
-1473 -197 -285 179 -468 432 -554 765 -27 103 -29 123 -28 295 1 174 3 192
32 302 148 564 644 944 1202 923 69 -3 163 -14 210 -24z"/>
<path d="M17455 13474 c-269 -40 -494 -131 -698 -285 -667 -501 -801 -1460
-298 -2126 64 -84 206 -228 286 -290 490 -379 1173 -399 1697 -51 121 80 312
271 397 396 127 188 214 411 247 635 22 149 15 411 -15 542 -138 598 -566
1031 -1146 1157 -87 19 -393 33 -470 22z m331 -275 c168 -23 356 -96 507 -197
95 -63 251 -218 316 -315 252 -376 291 -831 105 -1236 -80 -174 -237 -364
-399 -482 -38 -28 -119 -75 -180 -105 -576 -283 -1285 -35 -1575 551 -93 189
-133 356 -132 565 0 417 202 799 543 1026 246 164 534 232 815 193z"/>
<path d="M6505 6910 l-1640 -1640 98 -97 97 -98 1635 1635 c899 899 1635 1640
1635 1645 0 6 -42 52 -93 103 l-92 92 -1640 -1640z"/>
<path d="M15992 8457 c-50 -51 -92 -97 -92 -102 0 -6 736 -746 1635 -1645
l1635 -1635 97 98 98 97 -1640 1640 -1640 1640 -93 -93z"/>
<path d="M11840 8310 c-438 -43 -831 -281 -1082 -654 -361 -540 -337 -1259 61
-1773 216 -280 513 -467 862 -545 138 -30 434 -33 572 -5 588 119 1039 570
1169 1170 30 138 33 466 5 597 -123 588 -553 1042 -1111 1175 -166 40 -315 51
-476 35z m376 -290 c353 -70 673 -321 834 -655 98 -203 125 -326 124 -565 -1
-162 -3 -184 -32 -293 -72 -275 -234 -519 -451 -683 -472 -355 -1102 -318
-1528 88 -254 243 -385 551 -385 903 0 346 132 658 379 896 286 274 670 386
1059 309z"/>
</g>
</svg>
